<svg width="173" height="46" viewBox="0 0 173 46" fill="none" xmlns="http://www.w3.org/2000/svg">
<path d="M19.36 36C19.04 36 18.816 35.856 18.688 35.568L12.688 22.272C12.624 22.144 12.528 22.08 12.4 22.08H7.936C7.776 22.08 7.696 22.16 7.696 22.32V35.424C7.696 35.584 7.632 35.728 7.504 35.856C7.408 35.952 7.28 36 7.12 36H1.504C1.344 36 1.2 35.952 1.072 35.856C0.976 35.728 0.928 35.584 0.928 35.424L0.928 2.976C0.928 2.816 0.976 2.688 1.072 2.592C1.2 2.464 1.344 2.4 1.504 2.4L15.232 2.4C17.28 2.4 19.072 2.816 20.608 3.648C22.176 4.48 23.376 5.664 24.208 7.2C25.072 8.736 25.504 10.512 25.504 12.528C25.504 14.704 24.96 16.576 23.872 18.144C22.784 19.68 21.264 20.768 19.312 21.408C19.152 21.472 19.104 21.584 19.168 21.744L25.696 35.328C25.76 35.456 25.792 35.552 25.792 35.616C25.792 35.872 25.616 36 25.264 36H19.36ZM7.936 8.208C7.776 8.208 7.696 8.288 7.696 8.448V16.656C7.696 16.816 7.776 16.896 7.936 16.896H14.224C15.568 16.896 16.656 16.496 17.488 15.696C18.352 14.896 18.784 13.856 18.784 12.576C18.784 11.296 18.352 10.256 17.488 9.456C16.656 8.624 15.568 8.208 14.224 8.208H7.936ZM48.1323 21.12C48.3243 22.336 48.3883 23.696 48.3243 25.2C48.2923 25.584 48.0843 25.776 47.7003 25.776H32.8682C32.6762 25.776 32.6122 25.856 32.6762 26.016C32.7722 26.656 32.9482 27.296 33.2042 27.936C34.0363 29.728 35.7323 30.624 38.2923 30.624C40.3403 30.592 41.9563 29.76 43.1403 28.128C43.2682 27.936 43.4123 27.84 43.5723 27.84C43.6683 27.84 43.7803 27.904 43.9083 28.032L47.3643 31.44C47.5243 31.6 47.6043 31.744 47.6043 31.872C47.6043 31.936 47.5403 32.064 47.4123 32.256C46.3563 33.568 44.9963 34.592 43.3322 35.328C41.6683 36.032 39.8443 36.384 37.8602 36.384C35.1083 36.384 32.7722 35.76 30.8522 34.512C28.9642 33.264 27.6042 31.52 26.7722 29.28C26.1002 27.68 25.7642 25.584 25.7642 22.992C25.7642 21.232 26.0042 19.68 26.4842 18.336C27.2202 16.064 28.5002 14.256 30.3242 12.912C32.1802 11.568 34.3722 10.896 36.9002 10.896C40.1003 10.896 42.6603 11.824 44.5803 13.68C46.5323 15.536 47.7163 18.016 48.1323 21.12ZM36.9483 16.752C34.9323 16.752 33.6042 17.696 32.9643 19.584C32.8362 20 32.7242 20.512 32.6283 21.12C32.6283 21.28 32.7083 21.36 32.8682 21.36H41.1723C41.3643 21.36 41.4283 21.28 41.3643 21.12C41.2043 20.192 41.1243 19.744 41.1243 19.776C40.8363 18.816 40.3243 18.08 39.5883 17.568C38.8843 17.024 38.0043 16.752 36.9483 16.752ZM64.4474 2.976C64.4474 2.816 64.4954 2.688 64.5914 2.592C64.7194 2.464 64.8634 2.4 65.0234 2.4H70.6394C70.7994 2.4 70.9274 2.464 71.0234 2.592C71.1514 2.688 71.2154 2.816 71.2154 2.976V35.424C71.2154 35.584 71.1514 35.728 71.0234 35.856C70.9274 35.952 70.7994 36 70.6394 36H65.0234C64.8634 36 64.7194 35.952 64.5914 35.856C64.4954 35.728 64.4474 35.584 64.4474 35.424V33.84C64.4474 33.744 64.4154 33.696 64.3514 33.696C64.2874 33.664 64.2234 33.68 64.1594 33.744C62.8154 35.504 60.9754 36.384 58.6394 36.384C56.3994 36.384 54.4634 35.76 52.8314 34.512C51.2314 33.264 50.0794 31.552 49.3754 29.376C48.8314 27.712 48.5594 25.776 48.5594 23.568C48.5594 21.296 48.8474 19.312 49.4234 17.616C50.1594 15.568 51.3114 13.952 52.8794 12.768C54.4794 11.552 56.4474 10.944 58.7834 10.944C61.0874 10.944 62.8794 11.744 64.1594 13.344C64.2234 13.44 64.2874 13.472 64.3514 13.44C64.4154 13.408 64.4474 13.344 64.4474 13.248V2.976ZM63.4394 28.512C64.0794 27.328 64.3994 25.712 64.3994 23.664C64.3994 21.52 64.0474 19.84 63.3434 18.624C62.6074 17.376 61.5354 16.752 60.1274 16.752C58.6234 16.752 57.4874 17.376 56.7194 18.624C55.9194 19.872 55.5194 21.568 55.5194 23.712C55.5194 25.632 55.8554 27.232 56.5274 28.512C57.3274 29.888 58.5114 30.576 60.0794 30.576C61.5194 30.576 62.6394 29.888 63.4394 28.512ZM88.2749 2.976C88.2749 2.816 88.3229 2.688 88.4189 2.592C88.5469 2.464 88.6909 2.4 88.8509 2.4H94.4669C94.6269 2.4 94.7549 2.464 94.8509 2.592C94.9789 2.688 95.0429 2.816 95.0429 2.976V35.424C95.0429 35.584 94.9789 35.728 94.8509 35.856C94.7549 35.952 94.6269 36 94.4669 36H88.8509C88.6909 36 88.5469 35.952 88.4189 35.856C88.3229 35.728 88.2749 35.584 88.2749 35.424V33.84C88.2749 33.744 88.2429 33.696 88.1789 33.696C88.1149 33.664 88.0509 33.68 87.9869 33.744C86.6429 35.504 84.8029 36.384 82.4669 36.384C80.2269 36.384 78.2909 35.76 76.6589 34.512C75.0589 33.264 73.9069 31.552 73.2029 29.376C72.6589 27.712 72.3869 25.776 72.3869 23.568C72.3869 21.296 72.6749 19.312 73.2509 17.616C73.9869 15.568 75.1389 13.952 76.7069 12.768C78.3069 11.552 80.2749 10.944 82.6109 10.944C84.9149 10.944 86.7069 11.744 87.9869 13.344C88.0509 13.44 88.1149 13.472 88.1789 13.44C88.2429 13.408 88.2749 13.344 88.2749 13.248V2.976ZM87.2669 28.512C87.9069 27.328 88.2269 25.712 88.2269 23.664C88.2269 21.52 87.8749 19.84 87.1709 18.624C86.4349 17.376 85.3629 16.752 83.9549 16.752C82.4509 16.752 81.3149 17.376 80.5469 18.624C79.7469 19.872 79.3469 21.568 79.3469 23.712C79.3469 25.632 79.6829 27.232 80.3549 28.512C81.1549 29.888 82.3389 30.576 83.9069 30.576C85.3469 30.576 86.4669 29.888 87.2669 28.512Z" fill="#99AAB5"/>
<path d="M100.438 8.544C99.3504 8.544 98.4384 8.192 97.7024 7.488C96.9984 6.752 96.6464 5.84 96.6464 4.752C96.6464 3.632 96.9984 2.72 97.7024 2.016C98.4064 1.312 99.3184 0.959999 100.438 0.959999C101.558 0.959999 102.47 1.312 103.174 2.016C103.878 2.72 104.23 3.632 104.23 4.752C104.23 5.84 103.862 6.752 103.126 7.488C102.422 8.192 101.526 8.544 100.438 8.544ZM97.5584 36C97.3984 36 97.2544 35.952 97.1264 35.856C97.0304 35.728 96.9824 35.584 96.9824 35.424V11.856C96.9824 11.696 97.0304 11.568 97.1264 11.472C97.2544 11.344 97.3984 11.28 97.5584 11.28H103.174C103.334 11.28 103.462 11.344 103.558 11.472C103.686 11.568 103.75 11.696 103.75 11.856V35.424C103.75 35.584 103.686 35.728 103.558 35.856C103.462 35.952 103.334 36 103.174 36H97.5584ZM120.737 11.904C120.737 11.744 120.785 11.616 120.881 11.52C121.009 11.392 121.153 11.328 121.313 11.328H126.929C127.089 11.328 127.217 11.392 127.313 11.52C127.441 11.616 127.505 11.744 127.505 11.904V33.792C127.505 37.984 126.289 40.976 123.857 42.768C121.457 44.56 118.353 45.456 114.545 45.456C113.425 45.456 112.177 45.376 110.801 45.216C110.481 45.184 110.321 44.976 110.321 44.592L110.513 39.648C110.513 39.232 110.737 39.056 111.185 39.12C112.337 39.312 113.393 39.408 114.353 39.408C116.401 39.408 117.969 38.96 119.057 38.064C120.177 37.168 120.737 35.728 120.737 33.744C120.737 33.648 120.705 33.6 120.641 33.6C120.577 33.568 120.513 33.584 120.449 33.648C119.233 34.96 117.457 35.616 115.121 35.616C113.041 35.616 111.121 35.12 109.361 34.128C107.633 33.104 106.401 31.472 105.665 29.232C105.185 27.76 104.945 25.856 104.945 23.52C104.945 21.024 105.233 18.992 105.809 17.424C106.481 15.472 107.617 13.904 109.217 12.72C110.817 11.536 112.673 10.944 114.785 10.944C117.249 10.944 119.137 11.68 120.449 13.152C120.513 13.216 120.577 13.248 120.641 13.248C120.705 13.216 120.737 13.152 120.737 13.056V11.904ZM120.353 27.408C120.609 26.448 120.737 25.136 120.737 23.472C120.737 22.48 120.705 21.712 120.641 21.168C120.577 20.624 120.465 20.112 120.305 19.632C120.017 18.768 119.537 18.08 118.865 17.568C118.193 17.024 117.361 16.752 116.369 16.752C115.409 16.752 114.593 17.024 113.921 17.568C113.249 18.08 112.753 18.768 112.433 19.632C111.985 20.592 111.761 21.888 111.761 23.52C111.761 25.312 111.953 26.592 112.337 27.36C112.625 28.224 113.121 28.928 113.825 29.472C114.561 29.984 115.425 30.24 116.417 30.24C117.441 30.24 118.289 29.984 118.961 29.472C119.633 28.928 120.097 28.24 120.353 27.408ZM156.337 10.944C158.833 10.944 160.785 11.696 162.193 13.2C163.601 14.704 164.305 16.816 164.305 19.536V35.424C164.305 35.584 164.241 35.728 164.113 35.856C164.017 35.952 163.889 36 163.729 36H158.113C157.953 36 157.809 35.952 157.681 35.856C157.585 35.728 157.537 35.584 157.537 35.424V21.024C157.537 19.712 157.201 18.672 156.529 17.904C155.857 17.136 154.961 16.752 153.841 16.752C152.721 16.752 151.809 17.136 151.105 17.904C150.401 18.672 150.049 19.696 150.049 20.976V35.424C150.049 35.584 149.985 35.728 149.857 35.856C149.761 35.952 149.633 36 149.473 36H143.905C143.745 36 143.601 35.952 143.473 35.856C143.377 35.728 143.329 35.584 143.329 35.424V21.024C143.329 19.744 142.977 18.72 142.273 17.952C141.569 17.152 140.657 16.752 139.537 16.752C138.513 16.752 137.649 17.056 136.945 17.664C136.273 18.272 135.873 19.12 135.745 20.208V35.424C135.745 35.584 135.681 35.728 135.553 35.856C135.457 35.952 135.329 36 135.169 36H129.553C129.393 36 129.249 35.952 129.121 35.856C129.025 35.728 128.977 35.584 128.977 35.424V11.904C128.977 11.744 129.025 11.616 129.121 11.52C129.249 11.392 129.393 11.328 129.553 11.328H135.169C135.329 11.328 135.457 11.392 135.553 11.52C135.681 11.616 135.745 11.744 135.745 11.904V13.776C135.745 13.872 135.777 13.936 135.841 13.968C135.905 14 135.969 13.968 136.033 13.872C137.345 11.92 139.377 10.944 142.129 10.944C143.729 10.944 145.121 11.28 146.305 11.952C147.521 12.624 148.449 13.584 149.089 14.832C149.185 15.024 149.297 15.024 149.425 14.832C150.129 13.52 151.073 12.544 152.257 11.904C153.473 11.264 154.833 10.944 156.337 10.944ZM169.064 36.192C167.976 36.192 167.064 35.84 166.328 35.136C165.624 34.4 165.272 33.488 165.272 32.4C165.272 31.28 165.624 30.368 166.328 29.664C167.032 28.96 167.944 28.608 169.064 28.608C170.184 28.608 171.096 28.96 171.8 29.664C172.504 30.368 172.856 31.28 172.856 32.4C172.856 33.488 172.488 34.4 171.752 35.136C171.048 35.84 170.152 36.192 169.064 36.192Z" fill="#1E7E4A"/>
</svg>
